G04 #@! TF.GenerationSoftware,KiCad,Pcbnew,no-vcs-found-7688~57~ubuntu16.04.1*
G04 #@! TF.CreationDate,2017-02-28T12:49:15+07:00*
G04 #@! TF.ProjectId,esp32-iot-uno-hw,65737033322D696F742D756E6F2D6877,rev?*
G04 #@! TF.FileFunction,Soldermask,Bot*
G04 #@! TF.FilePolarity,Negative*
%FSLAX46Y46*%
G04 Gerber Fmt 4.6, Leading zero omitted, Abs format (unit mm)*
G04 Created by KiCad (PCBNEW no-vcs-found-7688~57~ubuntu16.04.1) date Tue Feb 28 12:49:15 2017*
%MOMM*%
%LPD*%
G01*
G04 APERTURE LIST*
%ADD10C,0.100000*%
%ADD11C,1.400000*%
%ADD12R,3.900000X3.900000*%
%ADD13O,2.100000X2.100000*%
%ADD14R,2.100000X2.100000*%
%ADD15O,1.950000X1.400000*%
%ADD16O,1.350000X1.650000*%
%ADD17C,1.500000*%
%ADD18O,2.000000X2.000000*%
%ADD19R,2.000000X2.000000*%
G04 APERTURE END LIST*
D10*
D11*
X122750129Y-78507456D03*
D12*
X123212600Y-116510800D03*
X120212600Y-111810800D03*
X126212600Y-111810800D03*
D13*
X175363274Y-71170800D03*
X172823274Y-71170800D03*
X170283274Y-71170800D03*
X167743274Y-71170800D03*
X165203274Y-71170800D03*
X162663274Y-71170800D03*
X160123274Y-71170800D03*
D14*
X157583274Y-71170800D03*
D13*
X175363274Y-119716022D03*
X172823274Y-119716022D03*
X170283274Y-119716022D03*
X167743274Y-119716022D03*
X165203274Y-119716022D03*
D14*
X162663274Y-119716022D03*
X153773274Y-71170800D03*
D13*
X151233274Y-71170800D03*
X148693274Y-71170800D03*
X146153274Y-71170800D03*
X143613274Y-71170800D03*
X141073274Y-71170800D03*
X138533274Y-71170800D03*
X135993274Y-71170800D03*
X133453274Y-71170800D03*
X130913274Y-71170800D03*
D15*
X114526474Y-88037022D03*
X114526474Y-81037022D03*
D16*
X117226474Y-87037022D03*
X117226474Y-82037022D03*
D14*
X139801600Y-119684800D03*
D13*
X142341600Y-119684800D03*
X144881600Y-119684800D03*
X147421600Y-119684800D03*
X149961600Y-119684800D03*
X152501600Y-119684800D03*
X155041600Y-119684800D03*
X157581600Y-119684800D03*
X116052600Y-92887800D03*
X116052600Y-95427800D03*
X116052600Y-97967800D03*
D14*
X116052600Y-100507800D03*
D13*
X154281274Y-79457022D03*
X154281274Y-81997022D03*
D14*
X154281274Y-84537022D03*
D17*
X172948600Y-80314800D03*
X172948600Y-88294800D03*
D18*
X148820274Y-78187022D03*
D19*
X148820274Y-85807022D03*
M02*
